G04 #@! TF.FileFunction,Legend,Top*
%FSLAX46Y46*%
G04 Gerber Fmt 4.6, Leading zero omitted, Abs format (unit mm)*
G04 Created by KiCad (PCBNEW 4.0.7) date 08/02/18 14:57:07*
%MOMM*%
%LPD*%
G01*
G04 APERTURE LIST*
%ADD10C,0.100000*%
%ADD11C,0.200000*%
%ADD12C,0.300000*%
%ADD13C,0.120000*%
%ADD14C,0.150000*%
G04 APERTURE END LIST*
D10*
D11*
X170632381Y-106837382D02*
X169632381Y-106837382D01*
X169632381Y-106599287D01*
X169680000Y-106456429D01*
X169775238Y-106361191D01*
X169870476Y-106313572D01*
X170060952Y-106265953D01*
X170203810Y-106265953D01*
X170394286Y-106313572D01*
X170489524Y-106361191D01*
X170584762Y-106456429D01*
X170632381Y-106599287D01*
X170632381Y-106837382D01*
X170584762Y-105456429D02*
X170632381Y-105551667D01*
X170632381Y-105742144D01*
X170584762Y-105837382D01*
X170489524Y-105885001D01*
X170108571Y-105885001D01*
X170013333Y-105837382D01*
X169965714Y-105742144D01*
X169965714Y-105551667D01*
X170013333Y-105456429D01*
X170108571Y-105408810D01*
X170203810Y-105408810D01*
X170299048Y-105885001D01*
X170584762Y-105027858D02*
X170632381Y-104932620D01*
X170632381Y-104742144D01*
X170584762Y-104646905D01*
X170489524Y-104599286D01*
X170441905Y-104599286D01*
X170346667Y-104646905D01*
X170299048Y-104742144D01*
X170299048Y-104885001D01*
X170251429Y-104980239D01*
X170156190Y-105027858D01*
X170108571Y-105027858D01*
X170013333Y-104980239D01*
X169965714Y-104885001D01*
X169965714Y-104742144D01*
X170013333Y-104646905D01*
X170632381Y-104170715D02*
X169965714Y-104170715D01*
X169632381Y-104170715D02*
X169680000Y-104218334D01*
X169727619Y-104170715D01*
X169680000Y-104123096D01*
X169632381Y-104170715D01*
X169727619Y-104170715D01*
X169965714Y-103265953D02*
X170775238Y-103265953D01*
X170870476Y-103313572D01*
X170918095Y-103361191D01*
X170965714Y-103456430D01*
X170965714Y-103599287D01*
X170918095Y-103694525D01*
X170584762Y-103265953D02*
X170632381Y-103361191D01*
X170632381Y-103551668D01*
X170584762Y-103646906D01*
X170537143Y-103694525D01*
X170441905Y-103742144D01*
X170156190Y-103742144D01*
X170060952Y-103694525D01*
X170013333Y-103646906D01*
X169965714Y-103551668D01*
X169965714Y-103361191D01*
X170013333Y-103265953D01*
X169965714Y-102789763D02*
X170632381Y-102789763D01*
X170060952Y-102789763D02*
X170013333Y-102742144D01*
X169965714Y-102646906D01*
X169965714Y-102504048D01*
X170013333Y-102408810D01*
X170108571Y-102361191D01*
X170632381Y-102361191D01*
X170584762Y-101504048D02*
X170632381Y-101599286D01*
X170632381Y-101789763D01*
X170584762Y-101885001D01*
X170489524Y-101932620D01*
X170108571Y-101932620D01*
X170013333Y-101885001D01*
X169965714Y-101789763D01*
X169965714Y-101599286D01*
X170013333Y-101504048D01*
X170108571Y-101456429D01*
X170203810Y-101456429D01*
X170299048Y-101932620D01*
X170632381Y-100599286D02*
X169632381Y-100599286D01*
X170584762Y-100599286D02*
X170632381Y-100694524D01*
X170632381Y-100885001D01*
X170584762Y-100980239D01*
X170537143Y-101027858D01*
X170441905Y-101075477D01*
X170156190Y-101075477D01*
X170060952Y-101027858D01*
X170013333Y-100980239D01*
X169965714Y-100885001D01*
X169965714Y-100694524D01*
X170013333Y-100599286D01*
X170632381Y-99218334D02*
X170584762Y-99313572D01*
X170537143Y-99361191D01*
X170441905Y-99408810D01*
X170156190Y-99408810D01*
X170060952Y-99361191D01*
X170013333Y-99313572D01*
X169965714Y-99218334D01*
X169965714Y-99075476D01*
X170013333Y-98980238D01*
X170060952Y-98932619D01*
X170156190Y-98885000D01*
X170441905Y-98885000D01*
X170537143Y-98932619D01*
X170584762Y-98980238D01*
X170632381Y-99075476D01*
X170632381Y-99218334D01*
X169965714Y-98456429D02*
X170632381Y-98456429D01*
X170060952Y-98456429D02*
X170013333Y-98408810D01*
X169965714Y-98313572D01*
X169965714Y-98170714D01*
X170013333Y-98075476D01*
X170108571Y-98027857D01*
X170632381Y-98027857D01*
X170632381Y-96789762D02*
X169632381Y-96789762D01*
X170346667Y-96456428D01*
X169632381Y-96123095D01*
X170632381Y-96123095D01*
X170632381Y-95218333D02*
X170108571Y-95218333D01*
X170013333Y-95265952D01*
X169965714Y-95361190D01*
X169965714Y-95551667D01*
X170013333Y-95646905D01*
X170584762Y-95218333D02*
X170632381Y-95313571D01*
X170632381Y-95551667D01*
X170584762Y-95646905D01*
X170489524Y-95694524D01*
X170394286Y-95694524D01*
X170299048Y-95646905D01*
X170251429Y-95551667D01*
X170251429Y-95313571D01*
X170203810Y-95218333D01*
X170632381Y-94742143D02*
X169965714Y-94742143D01*
X170156190Y-94742143D02*
X170060952Y-94694524D01*
X170013333Y-94646905D01*
X169965714Y-94551667D01*
X169965714Y-94456428D01*
X170584762Y-94170714D02*
X170632381Y-94075476D01*
X170632381Y-93885000D01*
X170584762Y-93789761D01*
X170489524Y-93742142D01*
X170441905Y-93742142D01*
X170346667Y-93789761D01*
X170299048Y-93885000D01*
X170299048Y-94027857D01*
X170251429Y-94123095D01*
X170156190Y-94170714D01*
X170108571Y-94170714D01*
X170013333Y-94123095D01*
X169965714Y-94027857D01*
X169965714Y-93885000D01*
X170013333Y-93789761D01*
X170584762Y-93265952D02*
X170632381Y-93265952D01*
X170727619Y-93313571D01*
X170775238Y-93361190D01*
X170537143Y-91504047D02*
X170584762Y-91551666D01*
X170632381Y-91694523D01*
X170632381Y-91789761D01*
X170584762Y-91932619D01*
X170489524Y-92027857D01*
X170394286Y-92075476D01*
X170203810Y-92123095D01*
X170060952Y-92123095D01*
X169870476Y-92075476D01*
X169775238Y-92027857D01*
X169680000Y-91932619D01*
X169632381Y-91789761D01*
X169632381Y-91694523D01*
X169680000Y-91551666D01*
X169727619Y-91504047D01*
X170632381Y-91075476D02*
X169632381Y-91075476D01*
X170632381Y-90646904D02*
X170108571Y-90646904D01*
X170013333Y-90694523D01*
X169965714Y-90789761D01*
X169965714Y-90932619D01*
X170013333Y-91027857D01*
X170060952Y-91075476D01*
X169965714Y-89742142D02*
X170632381Y-89742142D01*
X169965714Y-90170714D02*
X170489524Y-90170714D01*
X170584762Y-90123095D01*
X170632381Y-90027857D01*
X170632381Y-89884999D01*
X170584762Y-89789761D01*
X170537143Y-89742142D01*
X170632381Y-88837380D02*
X170108571Y-88837380D01*
X170013333Y-88884999D01*
X169965714Y-88980237D01*
X169965714Y-89170714D01*
X170013333Y-89265952D01*
X170584762Y-88837380D02*
X170632381Y-88932618D01*
X170632381Y-89170714D01*
X170584762Y-89265952D01*
X170489524Y-89313571D01*
X170394286Y-89313571D01*
X170299048Y-89265952D01*
X170251429Y-89170714D01*
X170251429Y-88932618D01*
X170203810Y-88837380D01*
X169965714Y-88361190D02*
X170632381Y-88361190D01*
X170060952Y-88361190D02*
X170013333Y-88313571D01*
X169965714Y-88218333D01*
X169965714Y-88075475D01*
X170013333Y-87980237D01*
X170108571Y-87932618D01*
X170632381Y-87932618D01*
X170156190Y-86504047D02*
X170632381Y-86504047D01*
X169632381Y-86837380D02*
X170156190Y-86504047D01*
X169632381Y-86170713D01*
X170632381Y-85837380D02*
X169965714Y-85837380D01*
X169632381Y-85837380D02*
X169680000Y-85884999D01*
X169727619Y-85837380D01*
X169680000Y-85789761D01*
X169632381Y-85837380D01*
X169727619Y-85837380D01*
X169965714Y-85361190D02*
X170632381Y-85361190D01*
X170060952Y-85361190D02*
X170013333Y-85313571D01*
X169965714Y-85218333D01*
X169965714Y-85075475D01*
X170013333Y-84980237D01*
X170108571Y-84932618D01*
X170632381Y-84932618D01*
X159393572Y-78557381D02*
X158822143Y-78557381D01*
X159107857Y-78557381D02*
X159107857Y-77557381D01*
X159012619Y-77700238D01*
X158917381Y-77795476D01*
X158822143Y-77843095D01*
X159774524Y-77652619D02*
X159822143Y-77605000D01*
X159917381Y-77557381D01*
X160155477Y-77557381D01*
X160250715Y-77605000D01*
X160298334Y-77652619D01*
X160345953Y-77747857D01*
X160345953Y-77843095D01*
X160298334Y-77985952D01*
X159726905Y-78557381D01*
X160345953Y-78557381D01*
X160774524Y-78176429D02*
X161536429Y-78176429D01*
X162012619Y-78557381D02*
X162012619Y-77557381D01*
X162012619Y-77938333D02*
X162107857Y-77890714D01*
X162298334Y-77890714D01*
X162393572Y-77938333D01*
X162441191Y-77985952D01*
X162488810Y-78081190D01*
X162488810Y-78366905D01*
X162441191Y-78462143D01*
X162393572Y-78509762D01*
X162298334Y-78557381D01*
X162107857Y-78557381D01*
X162012619Y-78509762D01*
X162917381Y-78557381D02*
X162917381Y-77890714D01*
X162917381Y-77557381D02*
X162869762Y-77605000D01*
X162917381Y-77652619D01*
X162965000Y-77605000D01*
X162917381Y-77557381D01*
X162917381Y-77652619D01*
X163250714Y-77890714D02*
X163631666Y-77890714D01*
X163393571Y-77557381D02*
X163393571Y-78414524D01*
X163441190Y-78509762D01*
X163536428Y-78557381D01*
X163631666Y-78557381D01*
X164726905Y-78557381D02*
X164726905Y-77557381D01*
X164965000Y-77557381D01*
X165107858Y-77605000D01*
X165203096Y-77700238D01*
X165250715Y-77795476D01*
X165298334Y-77985952D01*
X165298334Y-78128810D01*
X165250715Y-78319286D01*
X165203096Y-78414524D01*
X165107858Y-78509762D01*
X164965000Y-78557381D01*
X164726905Y-78557381D01*
X165679286Y-78271667D02*
X166155477Y-78271667D01*
X165584048Y-78557381D02*
X165917381Y-77557381D01*
X166250715Y-78557381D01*
X167155477Y-78462143D02*
X167107858Y-78509762D01*
X166965001Y-78557381D01*
X166869763Y-78557381D01*
X166726905Y-78509762D01*
X166631667Y-78414524D01*
X166584048Y-78319286D01*
X166536429Y-78128810D01*
X166536429Y-77985952D01*
X166584048Y-77795476D01*
X166631667Y-77700238D01*
X166726905Y-77605000D01*
X166869763Y-77557381D01*
X166965001Y-77557381D01*
X167107858Y-77605000D01*
X167155477Y-77652619D01*
X167631667Y-78509762D02*
X167631667Y-78557381D01*
X167584048Y-78652619D01*
X167536429Y-78700238D01*
X168726905Y-77890714D02*
X168965000Y-78557381D01*
X169203096Y-77890714D01*
X170107858Y-78557381D02*
X169536429Y-78557381D01*
X169822143Y-78557381D02*
X169822143Y-77557381D01*
X169726905Y-77700238D01*
X169631667Y-77795476D01*
X169536429Y-77843095D01*
X143410000Y-94970000D02*
X146160000Y-94970000D01*
X143410000Y-91720000D02*
X143410000Y-94970000D01*
X143410000Y-91720000D02*
X146160000Y-91720000D01*
X146160000Y-91720000D02*
X146160000Y-94970000D01*
D12*
X146653572Y-100143571D02*
X147153572Y-101643571D01*
X147653572Y-100143571D01*
X149010715Y-101643571D02*
X148510715Y-100929286D01*
X148153572Y-101643571D02*
X148153572Y-100143571D01*
X148725000Y-100143571D01*
X148867858Y-100215000D01*
X148939286Y-100286429D01*
X149010715Y-100429286D01*
X149010715Y-100643571D01*
X148939286Y-100786429D01*
X148867858Y-100857857D01*
X148725000Y-100929286D01*
X148153572Y-100929286D01*
X149653572Y-100857857D02*
X150153572Y-100857857D01*
X150367858Y-101643571D02*
X149653572Y-101643571D01*
X149653572Y-100143571D01*
X150367858Y-100143571D01*
X151510715Y-100857857D02*
X151010715Y-100857857D01*
X151010715Y-101643571D02*
X151010715Y-100143571D01*
X151725001Y-100143571D01*
X158710715Y-89642143D02*
X159853572Y-89642143D01*
X159282143Y-90213571D02*
X159282143Y-89070714D01*
X161353572Y-90213571D02*
X160496429Y-90213571D01*
X160925001Y-90213571D02*
X160925001Y-88713571D01*
X160782144Y-88927857D01*
X160639286Y-89070714D01*
X160496429Y-89142143D01*
X161925000Y-88856429D02*
X161996429Y-88785000D01*
X162139286Y-88713571D01*
X162496429Y-88713571D01*
X162639286Y-88785000D01*
X162710715Y-88856429D01*
X162782143Y-88999286D01*
X162782143Y-89142143D01*
X162710715Y-89356429D01*
X161853572Y-90213571D01*
X162782143Y-90213571D01*
X164353571Y-88713571D02*
X164853571Y-90213571D01*
X165353571Y-88713571D01*
X158353572Y-94087143D02*
X159496429Y-94087143D01*
X158925000Y-94658571D02*
X158925000Y-93515714D01*
X160067858Y-93158571D02*
X160996429Y-93158571D01*
X160496429Y-93730000D01*
X160710715Y-93730000D01*
X160853572Y-93801429D01*
X160925001Y-93872857D01*
X160996429Y-94015714D01*
X160996429Y-94372857D01*
X160925001Y-94515714D01*
X160853572Y-94587143D01*
X160710715Y-94658571D01*
X160282143Y-94658571D01*
X160139286Y-94587143D01*
X160067858Y-94515714D01*
X161639286Y-94515714D02*
X161710714Y-94587143D01*
X161639286Y-94658571D01*
X161567857Y-94587143D01*
X161639286Y-94515714D01*
X161639286Y-94658571D01*
X162210715Y-93158571D02*
X163139286Y-93158571D01*
X162639286Y-93730000D01*
X162853572Y-93730000D01*
X162996429Y-93801429D01*
X163067858Y-93872857D01*
X163139286Y-94015714D01*
X163139286Y-94372857D01*
X163067858Y-94515714D01*
X162996429Y-94587143D01*
X162853572Y-94658571D01*
X162425000Y-94658571D01*
X162282143Y-94587143D01*
X162210715Y-94515714D01*
X164710714Y-93158571D02*
X165210714Y-94658571D01*
X165710714Y-93158571D01*
X160782143Y-97675000D02*
X160639286Y-97603571D01*
X160425000Y-97603571D01*
X160210715Y-97675000D01*
X160067857Y-97817857D01*
X159996429Y-97960714D01*
X159925000Y-98246429D01*
X159925000Y-98460714D01*
X159996429Y-98746429D01*
X160067857Y-98889286D01*
X160210715Y-99032143D01*
X160425000Y-99103571D01*
X160567857Y-99103571D01*
X160782143Y-99032143D01*
X160853572Y-98960714D01*
X160853572Y-98460714D01*
X160567857Y-98460714D01*
X161496429Y-99103571D02*
X161496429Y-97603571D01*
X162353572Y-99103571D01*
X162353572Y-97603571D01*
X163067858Y-99103571D02*
X163067858Y-97603571D01*
X163425001Y-97603571D01*
X163639286Y-97675000D01*
X163782144Y-97817857D01*
X163853572Y-97960714D01*
X163925001Y-98246429D01*
X163925001Y-98460714D01*
X163853572Y-98746429D01*
X163782144Y-98889286D01*
X163639286Y-99032143D01*
X163425001Y-99103571D01*
X163067858Y-99103571D01*
X158710715Y-102977143D02*
X159853572Y-102977143D01*
X161353572Y-103548571D02*
X160496429Y-103548571D01*
X160925001Y-103548571D02*
X160925001Y-102048571D01*
X160782144Y-102262857D01*
X160639286Y-102405714D01*
X160496429Y-102477143D01*
X161925000Y-102191429D02*
X161996429Y-102120000D01*
X162139286Y-102048571D01*
X162496429Y-102048571D01*
X162639286Y-102120000D01*
X162710715Y-102191429D01*
X162782143Y-102334286D01*
X162782143Y-102477143D01*
X162710715Y-102691429D01*
X161853572Y-103548571D01*
X162782143Y-103548571D01*
X164353571Y-102048571D02*
X164853571Y-103548571D01*
X165353571Y-102048571D01*
D13*
X151345000Y-91940000D02*
X151345000Y-90940000D01*
X149645000Y-90940000D02*
X149645000Y-91940000D01*
X157630000Y-95380000D02*
X156080000Y-95380000D01*
X152300000Y-95380000D02*
X153850000Y-95380000D01*
X153060000Y-90040000D02*
X153850000Y-90040000D01*
X156870000Y-90040000D02*
X156080000Y-90040000D01*
X157630000Y-95380000D02*
X157630000Y-90800000D01*
X157630000Y-90800000D02*
X156870000Y-90040000D01*
X153060000Y-90040000D02*
X152300000Y-90800000D01*
X152300000Y-90800000D02*
X152300000Y-95380000D01*
X157060000Y-84955000D02*
X157060000Y-83955000D01*
X155360000Y-83955000D02*
X155360000Y-84955000D01*
X137580000Y-83955000D02*
X137580000Y-84955000D01*
X139280000Y-84955000D02*
X139280000Y-83955000D01*
X133565000Y-84955000D02*
X133565000Y-83955000D01*
X131865000Y-83955000D02*
X131865000Y-84955000D01*
X166310000Y-95310000D02*
X168970000Y-95310000D01*
X166310000Y-95250000D02*
X166310000Y-95310000D01*
X168970000Y-95250000D02*
X168970000Y-95310000D01*
X166310000Y-95250000D02*
X168970000Y-95250000D01*
X166310000Y-93980000D02*
X166310000Y-92650000D01*
X166310000Y-92650000D02*
X167640000Y-92650000D01*
X166310000Y-99755000D02*
X168970000Y-99755000D01*
X166310000Y-99695000D02*
X166310000Y-99755000D01*
X168970000Y-99695000D02*
X168970000Y-99755000D01*
X166310000Y-99695000D02*
X168970000Y-99695000D01*
X166310000Y-98425000D02*
X166310000Y-97095000D01*
X166310000Y-97095000D02*
X167640000Y-97095000D01*
X166310000Y-90865000D02*
X168970000Y-90865000D01*
X166310000Y-90805000D02*
X166310000Y-90865000D01*
X168970000Y-90805000D02*
X168970000Y-90865000D01*
X166310000Y-90805000D02*
X168970000Y-90805000D01*
X166310000Y-89535000D02*
X166310000Y-88205000D01*
X166310000Y-88205000D02*
X167640000Y-88205000D01*
X166310000Y-104200000D02*
X168970000Y-104200000D01*
X166310000Y-104140000D02*
X166310000Y-104200000D01*
X168970000Y-104140000D02*
X168970000Y-104200000D01*
X166310000Y-104140000D02*
X168970000Y-104140000D01*
X166310000Y-102870000D02*
X166310000Y-101540000D01*
X166310000Y-101540000D02*
X167640000Y-101540000D01*
X144205000Y-103565000D02*
X144205000Y-100905000D01*
X141605000Y-103565000D02*
X144205000Y-103565000D01*
X141605000Y-100905000D02*
X144205000Y-100905000D01*
X141605000Y-103565000D02*
X141605000Y-100905000D01*
X140335000Y-103565000D02*
X139005000Y-103565000D01*
X139005000Y-103565000D02*
X139005000Y-102235000D01*
X152975000Y-102295000D02*
X155635000Y-102295000D01*
X152975000Y-102235000D02*
X152975000Y-102295000D01*
X155635000Y-102235000D02*
X155635000Y-102295000D01*
X152975000Y-102235000D02*
X155635000Y-102235000D01*
X152975000Y-100965000D02*
X152975000Y-99635000D01*
X152975000Y-99635000D02*
X154305000Y-99635000D01*
X137735000Y-90230000D02*
X140395000Y-90230000D01*
X137735000Y-90170000D02*
X137735000Y-90230000D01*
X140395000Y-90170000D02*
X140395000Y-90230000D01*
X137735000Y-90170000D02*
X140395000Y-90170000D01*
X137735000Y-88900000D02*
X137735000Y-87570000D01*
X137735000Y-87570000D02*
X139065000Y-87570000D01*
X149920000Y-80705000D02*
X149920000Y-78045000D01*
X142240000Y-80705000D02*
X149920000Y-80705000D01*
X142240000Y-78045000D02*
X149920000Y-78045000D01*
X142240000Y-80705000D02*
X142240000Y-78045000D01*
X140970000Y-80705000D02*
X139640000Y-80705000D01*
X139640000Y-80705000D02*
X139640000Y-79375000D01*
X132045000Y-99940000D02*
X130845000Y-99940000D01*
X130845000Y-98180000D02*
X132045000Y-98180000D01*
X130845000Y-91830000D02*
X132045000Y-91830000D01*
X132045000Y-93590000D02*
X130845000Y-93590000D01*
X130845000Y-95640000D02*
X132045000Y-95640000D01*
X132045000Y-97400000D02*
X130845000Y-97400000D01*
D14*
X147105000Y-89320000D02*
X147105000Y-89345000D01*
X147105000Y-97370000D02*
X147105000Y-97345000D01*
X142455000Y-97370000D02*
X142455000Y-97345000D01*
X141380000Y-89270000D02*
X147105000Y-89270000D01*
X142455000Y-97370000D02*
X147105000Y-97370000D01*
X126746000Y-83185000D02*
G75*
G03X126746000Y-83185000I-381000J0D01*
G01*
X126365000Y-82550000D02*
X125730000Y-82550000D01*
X125730000Y-82550000D02*
X125730000Y-83185000D01*
X126365000Y-82550000D02*
X128270000Y-82550000D01*
X128270000Y-82550000D02*
X128270000Y-86360000D01*
X128270000Y-86360000D02*
X125730000Y-86360000D01*
X125730000Y-86360000D02*
X125730000Y-83185000D01*
X143891000Y-83185000D02*
G75*
G03X143891000Y-83185000I-381000J0D01*
G01*
X143510000Y-82550000D02*
X142875000Y-82550000D01*
X142875000Y-82550000D02*
X142875000Y-83185000D01*
X143510000Y-82550000D02*
X145415000Y-82550000D01*
X145415000Y-82550000D02*
X145415000Y-86360000D01*
X145415000Y-86360000D02*
X142875000Y-86360000D01*
X142875000Y-86360000D02*
X142875000Y-83185000D01*
X161671000Y-83185000D02*
G75*
G03X161671000Y-83185000I-381000J0D01*
G01*
X161290000Y-82550000D02*
X160655000Y-82550000D01*
X160655000Y-82550000D02*
X160655000Y-83185000D01*
X161290000Y-82550000D02*
X163195000Y-82550000D01*
X163195000Y-82550000D02*
X163195000Y-86360000D01*
X163195000Y-86360000D02*
X160655000Y-86360000D01*
X160655000Y-86360000D02*
X160655000Y-83185000D01*
D13*
X119955000Y-104835000D02*
X122615000Y-104835000D01*
X119955000Y-92075000D02*
X119955000Y-104835000D01*
X122615000Y-92075000D02*
X122615000Y-104835000D01*
X119955000Y-92075000D02*
X122615000Y-92075000D01*
X119955000Y-90805000D02*
X119955000Y-89475000D01*
X119955000Y-89475000D02*
X121285000Y-89475000D01*
X120435000Y-83955000D02*
X120435000Y-84955000D01*
X122135000Y-84955000D02*
X122135000Y-83955000D01*
X150710000Y-84955000D02*
X150710000Y-83955000D01*
X149010000Y-83955000D02*
X149010000Y-84955000D01*
X166790000Y-83955000D02*
X166790000Y-84955000D01*
X168490000Y-84955000D02*
X168490000Y-83955000D01*
D14*
X120180000Y-108375000D02*
X120180000Y-106875000D01*
X120180000Y-106875000D02*
X121680000Y-106875000D01*
X123680000Y-111375000D02*
X123680000Y-106875000D01*
X123680000Y-106875000D02*
X169180000Y-106875000D01*
X169180000Y-106875000D02*
X169180000Y-115375000D01*
X169180000Y-115375000D02*
X120180000Y-115375000D01*
X120180000Y-115375000D02*
X120180000Y-111375000D01*
X120180000Y-111375000D02*
X123680000Y-111375000D01*
X150328334Y-96242143D02*
X150280715Y-96289762D01*
X150137858Y-96337381D01*
X150042620Y-96337381D01*
X149899762Y-96289762D01*
X149804524Y-96194524D01*
X149756905Y-96099286D01*
X149709286Y-95908810D01*
X149709286Y-95765952D01*
X149756905Y-95575476D01*
X149804524Y-95480238D01*
X149899762Y-95385000D01*
X150042620Y-95337381D01*
X150137858Y-95337381D01*
X150280715Y-95385000D01*
X150328334Y-95432619D01*
X151280715Y-96337381D02*
X150709286Y-96337381D01*
X150995000Y-96337381D02*
X150995000Y-95337381D01*
X150899762Y-95480238D01*
X150804524Y-95575476D01*
X150709286Y-95623095D01*
X157313334Y-96877143D02*
X157265715Y-96924762D01*
X157122858Y-96972381D01*
X157027620Y-96972381D01*
X156884762Y-96924762D01*
X156789524Y-96829524D01*
X156741905Y-96734286D01*
X156694286Y-96543810D01*
X156694286Y-96400952D01*
X156741905Y-96210476D01*
X156789524Y-96115238D01*
X156884762Y-96020000D01*
X157027620Y-95972381D01*
X157122858Y-95972381D01*
X157265715Y-96020000D01*
X157313334Y-96067619D01*
X157694286Y-96067619D02*
X157741905Y-96020000D01*
X157837143Y-95972381D01*
X158075239Y-95972381D01*
X158170477Y-96020000D01*
X158218096Y-96067619D01*
X158265715Y-96162857D01*
X158265715Y-96258095D01*
X158218096Y-96400952D01*
X157646667Y-96972381D01*
X158265715Y-96972381D01*
X152671429Y-89710952D02*
X152671429Y-88949047D01*
X153052381Y-89329999D02*
X152290476Y-89329999D01*
X154138334Y-83542143D02*
X154090715Y-83589762D01*
X153947858Y-83637381D01*
X153852620Y-83637381D01*
X153709762Y-83589762D01*
X153614524Y-83494524D01*
X153566905Y-83399286D01*
X153519286Y-83208810D01*
X153519286Y-83065952D01*
X153566905Y-82875476D01*
X153614524Y-82780238D01*
X153709762Y-82685000D01*
X153852620Y-82637381D01*
X153947858Y-82637381D01*
X154090715Y-82685000D01*
X154138334Y-82732619D01*
X154471667Y-82637381D02*
X155090715Y-82637381D01*
X154757381Y-83018333D01*
X154900239Y-83018333D01*
X154995477Y-83065952D01*
X155043096Y-83113571D01*
X155090715Y-83208810D01*
X155090715Y-83446905D01*
X155043096Y-83542143D01*
X154995477Y-83589762D01*
X154900239Y-83637381D01*
X154614524Y-83637381D01*
X154519286Y-83589762D01*
X154471667Y-83542143D01*
X136358334Y-86082143D02*
X136310715Y-86129762D01*
X136167858Y-86177381D01*
X136072620Y-86177381D01*
X135929762Y-86129762D01*
X135834524Y-86034524D01*
X135786905Y-85939286D01*
X135739286Y-85748810D01*
X135739286Y-85605952D01*
X135786905Y-85415476D01*
X135834524Y-85320238D01*
X135929762Y-85225000D01*
X136072620Y-85177381D01*
X136167858Y-85177381D01*
X136310715Y-85225000D01*
X136358334Y-85272619D01*
X137263096Y-85177381D02*
X136786905Y-85177381D01*
X136739286Y-85653571D01*
X136786905Y-85605952D01*
X136882143Y-85558333D01*
X137120239Y-85558333D01*
X137215477Y-85605952D01*
X137263096Y-85653571D01*
X137310715Y-85748810D01*
X137310715Y-85986905D01*
X137263096Y-86082143D01*
X137215477Y-86129762D01*
X137120239Y-86177381D01*
X136882143Y-86177381D01*
X136786905Y-86129762D01*
X136739286Y-86082143D01*
X134453334Y-83542143D02*
X134405715Y-83589762D01*
X134262858Y-83637381D01*
X134167620Y-83637381D01*
X134024762Y-83589762D01*
X133929524Y-83494524D01*
X133881905Y-83399286D01*
X133834286Y-83208810D01*
X133834286Y-83065952D01*
X133881905Y-82875476D01*
X133929524Y-82780238D01*
X134024762Y-82685000D01*
X134167620Y-82637381D01*
X134262858Y-82637381D01*
X134405715Y-82685000D01*
X134453334Y-82732619D01*
X135310477Y-82637381D02*
X135120000Y-82637381D01*
X135024762Y-82685000D01*
X134977143Y-82732619D01*
X134881905Y-82875476D01*
X134834286Y-83065952D01*
X134834286Y-83446905D01*
X134881905Y-83542143D01*
X134929524Y-83589762D01*
X135024762Y-83637381D01*
X135215239Y-83637381D01*
X135310477Y-83589762D01*
X135358096Y-83542143D01*
X135405715Y-83446905D01*
X135405715Y-83208810D01*
X135358096Y-83113571D01*
X135310477Y-83065952D01*
X135215239Y-83018333D01*
X135024762Y-83018333D01*
X134929524Y-83065952D01*
X134881905Y-83113571D01*
X134834286Y-83208810D01*
X167306667Y-95972381D02*
X167306667Y-96686667D01*
X167259047Y-96829524D01*
X167163809Y-96924762D01*
X167020952Y-96972381D01*
X166925714Y-96972381D01*
X168306667Y-96972381D02*
X167735238Y-96972381D01*
X168020952Y-96972381D02*
X168020952Y-95972381D01*
X167925714Y-96115238D01*
X167830476Y-96210476D01*
X167735238Y-96258095D01*
X167306667Y-100417381D02*
X167306667Y-101131667D01*
X167259047Y-101274524D01*
X167163809Y-101369762D01*
X167020952Y-101417381D01*
X166925714Y-101417381D01*
X167735238Y-100512619D02*
X167782857Y-100465000D01*
X167878095Y-100417381D01*
X168116191Y-100417381D01*
X168211429Y-100465000D01*
X168259048Y-100512619D01*
X168306667Y-100607857D01*
X168306667Y-100703095D01*
X168259048Y-100845952D01*
X167687619Y-101417381D01*
X168306667Y-101417381D01*
X167306667Y-91527381D02*
X167306667Y-92241667D01*
X167259047Y-92384524D01*
X167163809Y-92479762D01*
X167020952Y-92527381D01*
X166925714Y-92527381D01*
X167687619Y-91527381D02*
X168306667Y-91527381D01*
X167973333Y-91908333D01*
X168116191Y-91908333D01*
X168211429Y-91955952D01*
X168259048Y-92003571D01*
X168306667Y-92098810D01*
X168306667Y-92336905D01*
X168259048Y-92432143D01*
X168211429Y-92479762D01*
X168116191Y-92527381D01*
X167830476Y-92527381D01*
X167735238Y-92479762D01*
X167687619Y-92432143D01*
X167306667Y-104862381D02*
X167306667Y-105576667D01*
X167259047Y-105719524D01*
X167163809Y-105814762D01*
X167020952Y-105862381D01*
X166925714Y-105862381D01*
X168259048Y-104862381D02*
X167782857Y-104862381D01*
X167735238Y-105338571D01*
X167782857Y-105290952D01*
X167878095Y-105243333D01*
X168116191Y-105243333D01*
X168211429Y-105290952D01*
X168259048Y-105338571D01*
X168306667Y-105433810D01*
X168306667Y-105671905D01*
X168259048Y-105767143D01*
X168211429Y-105814762D01*
X168116191Y-105862381D01*
X167878095Y-105862381D01*
X167782857Y-105814762D01*
X167735238Y-105767143D01*
X140001667Y-99782381D02*
X140001667Y-100496667D01*
X139954047Y-100639524D01*
X139858809Y-100734762D01*
X139715952Y-100782381D01*
X139620714Y-100782381D01*
X140906429Y-99782381D02*
X140715952Y-99782381D01*
X140620714Y-99830000D01*
X140573095Y-99877619D01*
X140477857Y-100020476D01*
X140430238Y-100210952D01*
X140430238Y-100591905D01*
X140477857Y-100687143D01*
X140525476Y-100734762D01*
X140620714Y-100782381D01*
X140811191Y-100782381D01*
X140906429Y-100734762D01*
X140954048Y-100687143D01*
X141001667Y-100591905D01*
X141001667Y-100353810D01*
X140954048Y-100258571D01*
X140906429Y-100210952D01*
X140811191Y-100163333D01*
X140620714Y-100163333D01*
X140525476Y-100210952D01*
X140477857Y-100258571D01*
X140430238Y-100353810D01*
X156511667Y-100417381D02*
X156511667Y-101131667D01*
X156464047Y-101274524D01*
X156368809Y-101369762D01*
X156225952Y-101417381D01*
X156130714Y-101417381D01*
X156892619Y-100417381D02*
X157559286Y-100417381D01*
X157130714Y-101417381D01*
X136191667Y-88352381D02*
X136191667Y-89066667D01*
X136144047Y-89209524D01*
X136048809Y-89304762D01*
X135905952Y-89352381D01*
X135810714Y-89352381D01*
X136715476Y-89352381D02*
X136905952Y-89352381D01*
X137001191Y-89304762D01*
X137048810Y-89257143D01*
X137144048Y-89114286D01*
X137191667Y-88923810D01*
X137191667Y-88542857D01*
X137144048Y-88447619D01*
X137096429Y-88400000D01*
X137001191Y-88352381D01*
X136810714Y-88352381D01*
X136715476Y-88400000D01*
X136667857Y-88447619D01*
X136620238Y-88542857D01*
X136620238Y-88780952D01*
X136667857Y-88876190D01*
X136715476Y-88923810D01*
X136810714Y-88971429D01*
X137001191Y-88971429D01*
X137096429Y-88923810D01*
X137144048Y-88876190D01*
X137191667Y-88780952D01*
X138092381Y-80184523D02*
X138806667Y-80184523D01*
X138949524Y-80232143D01*
X139044762Y-80327381D01*
X139092381Y-80470238D01*
X139092381Y-80565476D01*
X139092381Y-79184523D02*
X139092381Y-79755952D01*
X139092381Y-79470238D02*
X138092381Y-79470238D01*
X138235238Y-79565476D01*
X138330476Y-79660714D01*
X138378095Y-79755952D01*
X138092381Y-78565476D02*
X138092381Y-78470237D01*
X138140000Y-78374999D01*
X138187619Y-78327380D01*
X138282857Y-78279761D01*
X138473333Y-78232142D01*
X138711429Y-78232142D01*
X138901905Y-78279761D01*
X138997143Y-78327380D01*
X139044762Y-78374999D01*
X139092381Y-78470237D01*
X139092381Y-78565476D01*
X139044762Y-78660714D01*
X138997143Y-78708333D01*
X138901905Y-78755952D01*
X138711429Y-78803571D01*
X138473333Y-78803571D01*
X138282857Y-78755952D01*
X138187619Y-78708333D01*
X138140000Y-78660714D01*
X138092381Y-78565476D01*
X135088334Y-99512381D02*
X134755000Y-99036190D01*
X134516905Y-99512381D02*
X134516905Y-98512381D01*
X134897858Y-98512381D01*
X134993096Y-98560000D01*
X135040715Y-98607619D01*
X135088334Y-98702857D01*
X135088334Y-98845714D01*
X135040715Y-98940952D01*
X134993096Y-98988571D01*
X134897858Y-99036190D01*
X134516905Y-99036190D01*
X136040715Y-99512381D02*
X135469286Y-99512381D01*
X135755000Y-99512381D02*
X135755000Y-98512381D01*
X135659762Y-98655238D01*
X135564524Y-98750476D01*
X135469286Y-98798095D01*
X135088334Y-93162381D02*
X134755000Y-92686190D01*
X134516905Y-93162381D02*
X134516905Y-92162381D01*
X134897858Y-92162381D01*
X134993096Y-92210000D01*
X135040715Y-92257619D01*
X135088334Y-92352857D01*
X135088334Y-92495714D01*
X135040715Y-92590952D01*
X134993096Y-92638571D01*
X134897858Y-92686190D01*
X134516905Y-92686190D01*
X135469286Y-92257619D02*
X135516905Y-92210000D01*
X135612143Y-92162381D01*
X135850239Y-92162381D01*
X135945477Y-92210000D01*
X135993096Y-92257619D01*
X136040715Y-92352857D01*
X136040715Y-92448095D01*
X135993096Y-92590952D01*
X135421667Y-93162381D01*
X136040715Y-93162381D01*
X135088334Y-96972381D02*
X134755000Y-96496190D01*
X134516905Y-96972381D02*
X134516905Y-95972381D01*
X134897858Y-95972381D01*
X134993096Y-96020000D01*
X135040715Y-96067619D01*
X135088334Y-96162857D01*
X135088334Y-96305714D01*
X135040715Y-96400952D01*
X134993096Y-96448571D01*
X134897858Y-96496190D01*
X134516905Y-96496190D01*
X135421667Y-95972381D02*
X136040715Y-95972381D01*
X135707381Y-96353333D01*
X135850239Y-96353333D01*
X135945477Y-96400952D01*
X135993096Y-96448571D01*
X136040715Y-96543810D01*
X136040715Y-96781905D01*
X135993096Y-96877143D01*
X135945477Y-96924762D01*
X135850239Y-96972381D01*
X135564524Y-96972381D01*
X135469286Y-96924762D01*
X135421667Y-96877143D01*
X124499762Y-80462381D02*
X124166428Y-79986190D01*
X123928333Y-80462381D02*
X123928333Y-79462381D01*
X124309286Y-79462381D01*
X124404524Y-79510000D01*
X124452143Y-79557619D01*
X124499762Y-79652857D01*
X124499762Y-79795714D01*
X124452143Y-79890952D01*
X124404524Y-79938571D01*
X124309286Y-79986190D01*
X123928333Y-79986190D01*
X124785476Y-79462381D02*
X125118809Y-80462381D01*
X125452143Y-79462381D01*
X126309286Y-80462381D02*
X125737857Y-80462381D01*
X126023571Y-80462381D02*
X126023571Y-79462381D01*
X125928333Y-79605238D01*
X125833095Y-79700476D01*
X125737857Y-79748095D01*
X146558095Y-97877381D02*
X146558095Y-98686905D01*
X146605714Y-98782143D01*
X146653333Y-98829762D01*
X146748571Y-98877381D01*
X146939048Y-98877381D01*
X147034286Y-98829762D01*
X147081905Y-98782143D01*
X147129524Y-98686905D01*
X147129524Y-97877381D01*
X148129524Y-98877381D02*
X147558095Y-98877381D01*
X147843809Y-98877381D02*
X147843809Y-97877381D01*
X147748571Y-98020238D01*
X147653333Y-98115476D01*
X147558095Y-98163095D01*
X126238095Y-81367381D02*
X126238095Y-82176905D01*
X126285714Y-82272143D01*
X126333333Y-82319762D01*
X126428571Y-82367381D01*
X126619048Y-82367381D01*
X126714286Y-82319762D01*
X126761905Y-82272143D01*
X126809524Y-82176905D01*
X126809524Y-81367381D01*
X127238095Y-81462619D02*
X127285714Y-81415000D01*
X127380952Y-81367381D01*
X127619048Y-81367381D01*
X127714286Y-81415000D01*
X127761905Y-81462619D01*
X127809524Y-81557857D01*
X127809524Y-81653095D01*
X127761905Y-81795952D01*
X127190476Y-82367381D01*
X127809524Y-82367381D01*
X143383095Y-87082381D02*
X143383095Y-87891905D01*
X143430714Y-87987143D01*
X143478333Y-88034762D01*
X143573571Y-88082381D01*
X143764048Y-88082381D01*
X143859286Y-88034762D01*
X143906905Y-87987143D01*
X143954524Y-87891905D01*
X143954524Y-87082381D01*
X144335476Y-87082381D02*
X144954524Y-87082381D01*
X144621190Y-87463333D01*
X144764048Y-87463333D01*
X144859286Y-87510952D01*
X144906905Y-87558571D01*
X144954524Y-87653810D01*
X144954524Y-87891905D01*
X144906905Y-87987143D01*
X144859286Y-88034762D01*
X144764048Y-88082381D01*
X144478333Y-88082381D01*
X144383095Y-88034762D01*
X144335476Y-87987143D01*
X161163095Y-87082381D02*
X161163095Y-87891905D01*
X161210714Y-87987143D01*
X161258333Y-88034762D01*
X161353571Y-88082381D01*
X161544048Y-88082381D01*
X161639286Y-88034762D01*
X161686905Y-87987143D01*
X161734524Y-87891905D01*
X161734524Y-87082381D01*
X162639286Y-87415714D02*
X162639286Y-88082381D01*
X162401190Y-87034762D02*
X162163095Y-87749048D01*
X162782143Y-87749048D01*
X120951667Y-87927381D02*
X120951667Y-88641667D01*
X120904047Y-88784524D01*
X120808809Y-88879762D01*
X120665952Y-88927381D01*
X120570714Y-88927381D01*
X121570714Y-88355952D02*
X121475476Y-88308333D01*
X121427857Y-88260714D01*
X121380238Y-88165476D01*
X121380238Y-88117857D01*
X121427857Y-88022619D01*
X121475476Y-87975000D01*
X121570714Y-87927381D01*
X121761191Y-87927381D01*
X121856429Y-87975000D01*
X121904048Y-88022619D01*
X121951667Y-88117857D01*
X121951667Y-88165476D01*
X121904048Y-88260714D01*
X121856429Y-88308333D01*
X121761191Y-88355952D01*
X121570714Y-88355952D01*
X121475476Y-88403571D01*
X121427857Y-88451190D01*
X121380238Y-88546429D01*
X121380238Y-88736905D01*
X121427857Y-88832143D01*
X121475476Y-88879762D01*
X121570714Y-88927381D01*
X121761191Y-88927381D01*
X121856429Y-88879762D01*
X121904048Y-88832143D01*
X121951667Y-88736905D01*
X121951667Y-88546429D01*
X121904048Y-88451190D01*
X121856429Y-88403571D01*
X121761191Y-88355952D01*
X121118334Y-80367143D02*
X121070715Y-80414762D01*
X120927858Y-80462381D01*
X120832620Y-80462381D01*
X120689762Y-80414762D01*
X120594524Y-80319524D01*
X120546905Y-80224286D01*
X120499286Y-80033810D01*
X120499286Y-79890952D01*
X120546905Y-79700476D01*
X120594524Y-79605238D01*
X120689762Y-79510000D01*
X120832620Y-79462381D01*
X120927858Y-79462381D01*
X121070715Y-79510000D01*
X121118334Y-79557619D01*
X121975477Y-79795714D02*
X121975477Y-80462381D01*
X121737381Y-79414762D02*
X121499286Y-80129048D01*
X122118334Y-80129048D01*
X151598334Y-83542143D02*
X151550715Y-83589762D01*
X151407858Y-83637381D01*
X151312620Y-83637381D01*
X151169762Y-83589762D01*
X151074524Y-83494524D01*
X151026905Y-83399286D01*
X150979286Y-83208810D01*
X150979286Y-83065952D01*
X151026905Y-82875476D01*
X151074524Y-82780238D01*
X151169762Y-82685000D01*
X151312620Y-82637381D01*
X151407858Y-82637381D01*
X151550715Y-82685000D01*
X151598334Y-82732619D01*
X151931667Y-82637381D02*
X152598334Y-82637381D01*
X152169762Y-83637381D01*
X167473334Y-80367143D02*
X167425715Y-80414762D01*
X167282858Y-80462381D01*
X167187620Y-80462381D01*
X167044762Y-80414762D01*
X166949524Y-80319524D01*
X166901905Y-80224286D01*
X166854286Y-80033810D01*
X166854286Y-79890952D01*
X166901905Y-79700476D01*
X166949524Y-79605238D01*
X167044762Y-79510000D01*
X167187620Y-79462381D01*
X167282858Y-79462381D01*
X167425715Y-79510000D01*
X167473334Y-79557619D01*
X168044762Y-79890952D02*
X167949524Y-79843333D01*
X167901905Y-79795714D01*
X167854286Y-79700476D01*
X167854286Y-79652857D01*
X167901905Y-79557619D01*
X167949524Y-79510000D01*
X168044762Y-79462381D01*
X168235239Y-79462381D01*
X168330477Y-79510000D01*
X168378096Y-79557619D01*
X168425715Y-79652857D01*
X168425715Y-79700476D01*
X168378096Y-79795714D01*
X168330477Y-79843333D01*
X168235239Y-79890952D01*
X168044762Y-79890952D01*
X167949524Y-79938571D01*
X167901905Y-79986190D01*
X167854286Y-80081429D01*
X167854286Y-80271905D01*
X167901905Y-80367143D01*
X167949524Y-80414762D01*
X168044762Y-80462381D01*
X168235239Y-80462381D01*
X168330477Y-80414762D01*
X168378096Y-80367143D01*
X168425715Y-80271905D01*
X168425715Y-80081429D01*
X168378096Y-79986190D01*
X168330477Y-79938571D01*
X168235239Y-79890952D01*
X120951667Y-105497381D02*
X120951667Y-106211667D01*
X120904047Y-106354524D01*
X120808809Y-106449762D01*
X120665952Y-106497381D01*
X120570714Y-106497381D01*
X121856429Y-105830714D02*
X121856429Y-106497381D01*
X121618333Y-105449762D02*
X121380238Y-106164048D01*
X121999286Y-106164048D01*
M02*
