M48
;DRILL file {KiCad 4.0.7} date 08/02/18 14:59:56
;FORMAT={3:3/ absolute / metric / suppress leading zeros}
FMAT,2
METRIC,TZ
T1C0.400
T2C0.750
T3C1.000
T4C1.400
%
G90
G05
M71
T1
X149225Y-92710
X149225Y-95885
T2
X121285Y-81280
X123825Y-110490
X125095Y-87630
X125095Y-89535
X125730Y-111125
X127635Y-87630
X127635Y-92710
X127635Y-96520
X127635Y-99060
X127635Y-104775
X129540Y-111125
X132715Y-78740
X132715Y-81280
X134620Y-85725
X135255Y-111125
X136525Y-83185
X136525Y-103505
X136525Y-106045
X137795Y-111125
X140335Y-92710
X142240Y-88265
X142875Y-81280
X145415Y-81280
X145415Y-102235
X148590Y-103505
X148590Y-106045
X150495Y-94615
X151130Y-85090
X151765Y-86360
X154305Y-86360
X154940Y-85090
X154940Y-97790
X158115Y-88265
X160020Y-102870
X160020Y-106680
X161925Y-87630
X161925Y-90170
X164465Y-101600
X164465Y-104775
X165100Y-98425
X167640Y-81280
T3
X121285Y-90805
X121285Y-93345
X121285Y-95885
X121285Y-98425
X121285Y-100965
X121285Y-103505
X139065Y-88900
X140335Y-102235
X140970Y-79375
X142875Y-102235
X143510Y-79375
X146050Y-79375
X148590Y-79375
X154305Y-100965
X167640Y-89535
X167640Y-93980
X167640Y-98425
X167640Y-102870
T4
X121680Y-108375
X121680Y-113875
X125880Y-108375
X125880Y-113875
X130080Y-108375
X130080Y-113875
X134280Y-108375
X134280Y-113875
X138480Y-108375
X138480Y-113875
X142680Y-108375
X142680Y-113875
X146880Y-108375
X146880Y-113875
X151080Y-108375
X151080Y-113875
X155280Y-108375
X155280Y-113875
X159480Y-108375
X159480Y-113875
X163680Y-108375
X163680Y-113875
X167880Y-108375
X167880Y-113875
T0
M30
