G04 #@! TF.FileFunction,Copper,L1,Top,Signal*
%FSLAX46Y46*%
G04 Gerber Fmt 4.6, Leading zero omitted, Abs format (unit mm)*
G04 Created by KiCad (PCBNEW 4.0.7) date 08/02/18 14:57:07*
%MOMM*%
%LPD*%
G01*
G04 APERTURE LIST*
%ADD10C,0.100000*%
%ADD11R,1.250000X1.500000*%
%ADD12R,1.600000X3.000000*%
%ADD13R,1.700000X1.700000*%
%ADD14O,1.700000X1.700000*%
%ADD15R,1.500000X1.300000*%
%ADD16R,1.500000X1.600000*%
%ADD17R,1.200000X1.200000*%
%ADD18R,1.100000X0.400000*%
%ADD19R,1.505000X0.802000*%
%ADD20C,2.100000*%
%ADD21C,1.000000*%
%ADD22C,0.600000*%
%ADD23C,0.250000*%
%ADD24C,1.000000*%
G04 APERTURE END LIST*
D10*
D11*
X150495000Y-90190000D03*
X150495000Y-92690000D03*
D12*
X154940000Y-90510000D03*
X154940000Y-94910000D03*
D11*
X156210000Y-83205000D03*
X156210000Y-85705000D03*
X138430000Y-85705000D03*
X138430000Y-83205000D03*
X132715000Y-83205000D03*
X132715000Y-85705000D03*
D13*
X167640000Y-93980000D03*
X167640000Y-98425000D03*
X167640000Y-89535000D03*
X167640000Y-102870000D03*
X140335000Y-102235000D03*
D14*
X142875000Y-102235000D03*
D13*
X154305000Y-100965000D03*
X139065000Y-88900000D03*
X140970000Y-79375000D03*
D14*
X143510000Y-79375000D03*
X146050000Y-79375000D03*
X148590000Y-79375000D03*
D15*
X130095000Y-99060000D03*
X132795000Y-99060000D03*
X132795000Y-92710000D03*
X130095000Y-92710000D03*
X132795000Y-96520000D03*
X130095000Y-96520000D03*
D16*
X127455000Y-80010000D03*
D17*
X130705000Y-81010000D03*
X130705000Y-79010000D03*
D18*
X141930000Y-89770000D03*
X141930000Y-90420000D03*
X141930000Y-91070000D03*
X141930000Y-91720000D03*
X141930000Y-92370000D03*
X141930000Y-93020000D03*
X141930000Y-93670000D03*
X141930000Y-94320000D03*
X141930000Y-94970000D03*
X141930000Y-95620000D03*
X141930000Y-96270000D03*
X141930000Y-96920000D03*
X147630000Y-96920000D03*
X147630000Y-96270000D03*
X147630000Y-95620000D03*
X147630000Y-94970000D03*
X147630000Y-94320000D03*
X147630000Y-93670000D03*
X147630000Y-93020000D03*
X147630000Y-92370000D03*
X147630000Y-91720000D03*
X147630000Y-91070000D03*
X147630000Y-90420000D03*
X147630000Y-89770000D03*
D19*
X124502500Y-82550000D03*
X124502500Y-83820000D03*
X124502500Y-85090000D03*
X124502500Y-86360000D03*
X129497500Y-86360000D03*
X129497500Y-85090000D03*
X129497500Y-83820000D03*
X129497500Y-82550000D03*
X141647500Y-82550000D03*
X141647500Y-83820000D03*
X141647500Y-85090000D03*
X141647500Y-86360000D03*
X146642500Y-86360000D03*
X146642500Y-85090000D03*
X146642500Y-83820000D03*
X146642500Y-82550000D03*
X159427500Y-82550000D03*
X159427500Y-83820000D03*
X159427500Y-85090000D03*
X159427500Y-86360000D03*
X164422500Y-86360000D03*
X164422500Y-85090000D03*
X164422500Y-83820000D03*
X164422500Y-82550000D03*
D13*
X121285000Y-90805000D03*
D14*
X121285000Y-93345000D03*
X121285000Y-95885000D03*
X121285000Y-98425000D03*
X121285000Y-100965000D03*
X121285000Y-103505000D03*
D11*
X121285000Y-85705000D03*
X121285000Y-83205000D03*
X149860000Y-83205000D03*
X149860000Y-85705000D03*
X167640000Y-85705000D03*
X167640000Y-83205000D03*
D20*
X121680000Y-108375000D03*
X125880000Y-108375000D03*
X130080000Y-108375000D03*
X134280000Y-108375000D03*
X138480000Y-108375000D03*
X142680000Y-108375000D03*
X146880000Y-108375000D03*
X151080000Y-108375000D03*
X155280000Y-108375000D03*
X159480000Y-108375000D03*
X163680000Y-108375000D03*
X167880000Y-108375000D03*
X121680000Y-113875000D03*
X125880000Y-113875000D03*
X130080000Y-113875000D03*
X134280000Y-113875000D03*
X138480000Y-113875000D03*
X142680000Y-113875000D03*
X146880000Y-113875000D03*
X151080000Y-113875000D03*
X155280000Y-113875000D03*
X159480000Y-113875000D03*
X163680000Y-113875000D03*
X167880000Y-113875000D03*
D21*
X132715000Y-81280000D03*
X132715000Y-78740000D03*
X158115000Y-88265000D03*
X151765000Y-86360000D03*
X160020000Y-106680000D03*
X160020000Y-102870000D03*
X142875000Y-81280000D03*
X145415000Y-81280000D03*
D22*
X149225000Y-92710000D03*
X149225000Y-95885000D03*
D21*
X145415000Y-102235000D03*
X142240000Y-88265000D03*
X165100000Y-98425000D03*
X150495000Y-94615000D03*
X121285000Y-81280000D03*
X134620000Y-85725000D03*
X136525000Y-83185000D03*
X167640000Y-81280000D03*
X154940000Y-85090000D03*
X151130000Y-85090000D03*
X140335000Y-92710000D03*
X154940000Y-97790000D03*
X123825000Y-110490000D03*
X125095000Y-89535000D03*
X161925000Y-87630000D03*
X161925000Y-90170000D03*
X154305000Y-86360000D03*
X127635000Y-87630000D03*
X125095000Y-87630000D03*
X148590000Y-103505000D03*
X148590000Y-106045000D03*
X127635000Y-104775000D03*
X137795000Y-111125000D03*
X135255000Y-111125000D03*
X129540000Y-111125000D03*
X125730000Y-111125000D03*
X164465000Y-104775000D03*
X164465000Y-101600000D03*
X127635000Y-99060000D03*
X127635000Y-92710000D03*
X127635000Y-96520000D03*
X136525000Y-103505000D03*
X136525000Y-106045000D03*
D23*
X130705000Y-79010000D02*
X132445000Y-79010000D01*
X132715000Y-81280000D02*
X133985000Y-81280000D01*
X132445000Y-79010000D02*
X132715000Y-78740000D01*
D24*
X158115000Y-88265000D02*
X158750000Y-88265000D01*
D23*
X151765000Y-83820000D02*
X152400000Y-84455000D01*
X152400000Y-85725000D02*
X151765000Y-86360000D01*
X152400000Y-84455000D02*
X152400000Y-85725000D01*
X149860000Y-83205000D02*
X151150000Y-83205000D01*
X151150000Y-83205000D02*
X151765000Y-83820000D01*
D24*
X160020000Y-88900000D02*
X164465000Y-88900000D01*
X164465000Y-88900000D02*
X167005000Y-86360000D01*
X158750000Y-88265000D02*
X159385000Y-88900000D01*
X159385000Y-88900000D02*
X160020000Y-88900000D01*
X160020000Y-88900000D02*
X160020000Y-90805000D01*
X159480000Y-107220000D02*
X160020000Y-106680000D01*
X160020000Y-102870000D02*
X160020000Y-90805000D01*
X159480000Y-107220000D02*
X159480000Y-108375000D01*
X163680000Y-108375000D02*
X164040000Y-108375000D01*
D23*
X163680000Y-108375000D02*
X163680000Y-107465000D01*
X167640000Y-89535000D02*
X167640000Y-85705000D01*
X159385000Y-88900000D02*
X160020000Y-88900000D01*
X154940000Y-90510000D02*
X157820000Y-90510000D01*
X157820000Y-90510000D02*
X159385000Y-88945000D01*
X159385000Y-88945000D02*
X159385000Y-88900000D01*
X167640000Y-85705000D02*
X167640000Y-85725000D01*
X167640000Y-85725000D02*
X167005000Y-86360000D01*
X167005000Y-86360000D02*
X164465000Y-88900000D01*
X158750000Y-88265000D02*
X159385000Y-88900000D01*
X167640000Y-86360000D02*
X167640000Y-85705000D01*
X149860000Y-82550000D02*
X149225000Y-81280000D01*
X133985000Y-81280000D02*
X142875000Y-81280000D01*
X145415000Y-81280000D02*
X149225000Y-81280000D01*
X133985000Y-81280000D02*
X132715000Y-82550000D01*
X149860000Y-82550000D02*
X149860000Y-83205000D01*
X132715000Y-83205000D02*
X132715000Y-82550000D01*
D24*
X159480000Y-108375000D02*
X163680000Y-108375000D01*
D23*
X129497500Y-83820000D02*
X130810000Y-83820000D01*
X131445000Y-83185000D02*
X132695000Y-83185000D01*
X130810000Y-83820000D02*
X131445000Y-83185000D01*
X132695000Y-83185000D02*
X132715000Y-83205000D01*
X164422500Y-85090000D02*
X165735000Y-85090000D01*
X166370000Y-85725000D02*
X167620000Y-85725000D01*
X165735000Y-85090000D02*
X166370000Y-85725000D01*
X167620000Y-85725000D02*
X167640000Y-85705000D01*
X146642500Y-83820000D02*
X148590000Y-83820000D01*
X149225000Y-83185000D02*
X149840000Y-83185000D01*
X148590000Y-83820000D02*
X149225000Y-83185000D01*
X149840000Y-83185000D02*
X149860000Y-83205000D01*
X147630000Y-89770000D02*
X150075000Y-89770000D01*
X150075000Y-89770000D02*
X150815000Y-90510000D01*
X150815000Y-90510000D02*
X154940000Y-90510000D01*
X148590000Y-92710000D02*
X149225000Y-92710000D01*
X147630000Y-92370000D02*
X148590000Y-92370000D01*
X148590000Y-92370000D02*
X148590000Y-92710000D01*
X147630000Y-93020000D02*
X148590000Y-93020000D01*
X148590000Y-93020000D02*
X148590000Y-93345000D01*
X147630000Y-93670000D02*
X148265000Y-93670000D01*
X148235000Y-91720000D02*
X148590000Y-92075000D01*
X148590000Y-92075000D02*
X148590000Y-92710000D01*
X148590000Y-92710000D02*
X148590000Y-93345000D01*
X148235000Y-91720000D02*
X147630000Y-91720000D01*
X148265000Y-93670000D02*
X148590000Y-93345000D01*
X147630000Y-95620000D02*
X148960000Y-95620000D01*
X148960000Y-95620000D02*
X149225000Y-95885000D01*
X142875000Y-102235000D02*
X145415000Y-102235000D01*
X141930000Y-89770000D02*
X141930000Y-88575000D01*
X141930000Y-88575000D02*
X142240000Y-88265000D01*
X167640000Y-98425000D02*
X165100000Y-98425000D01*
X150495000Y-92690000D02*
X150495000Y-94615000D01*
X121285000Y-83205000D02*
X121285000Y-81280000D01*
X132715000Y-85705000D02*
X134600000Y-85705000D01*
X134600000Y-85705000D02*
X134620000Y-85725000D01*
X138430000Y-83205000D02*
X136545000Y-83205000D01*
X136545000Y-83205000D02*
X136525000Y-83185000D01*
X167640000Y-83205000D02*
X167640000Y-81280000D01*
X156210000Y-85705000D02*
X155555000Y-85705000D01*
X155555000Y-85705000D02*
X154940000Y-85090000D01*
X149860000Y-85705000D02*
X150515000Y-85705000D01*
X150515000Y-85705000D02*
X151130000Y-85090000D01*
X141930000Y-92370000D02*
X140675000Y-92370000D01*
X140675000Y-92370000D02*
X140335000Y-92710000D01*
X154940000Y-94910000D02*
X154940000Y-97790000D01*
X154645000Y-94615000D02*
X154940000Y-94910000D01*
X138430000Y-108325000D02*
X138480000Y-108375000D01*
X123825000Y-87630000D02*
X123825000Y-88265000D01*
D24*
X123825000Y-111760000D02*
X123825000Y-110490000D01*
X123825000Y-111760000D02*
X125880000Y-113815000D01*
D23*
X123825000Y-88265000D02*
X125095000Y-89535000D01*
D24*
X125880000Y-113875000D02*
X125880000Y-113815000D01*
X161925000Y-101600000D02*
X163639500Y-103314500D01*
X161925000Y-101600000D02*
X161925000Y-90170000D01*
X125880000Y-113875000D02*
X125880000Y-113642000D01*
X125880000Y-113642000D02*
X128016000Y-111506000D01*
X128016000Y-106934000D02*
X130175000Y-104775000D01*
X128016000Y-111506000D02*
X128016000Y-106934000D01*
X130175000Y-104775000D02*
X162179000Y-104775000D01*
X162179000Y-104775000D02*
X163639500Y-103314500D01*
X163639500Y-103314500D02*
X164084000Y-102870000D01*
X164084000Y-102870000D02*
X167640000Y-102870000D01*
D23*
X163830000Y-102870000D02*
X165100000Y-102870000D01*
X167640000Y-102870000D02*
X165100000Y-102870000D01*
X163830000Y-102870000D02*
X161925000Y-104775000D01*
X161925000Y-104775000D02*
X130175000Y-104775000D01*
X130175000Y-104775000D02*
X129540000Y-105410000D01*
X126155000Y-113875000D02*
X128270000Y-111760000D01*
X128270000Y-106680000D02*
X129540000Y-105410000D01*
X128270000Y-111760000D02*
X128270000Y-106680000D01*
X154325000Y-83205000D02*
X153710000Y-83820000D01*
X153710000Y-83820000D02*
X153710000Y-85725000D01*
X154325000Y-83205000D02*
X156210000Y-83205000D01*
X153710000Y-85765000D02*
X154305000Y-86360000D01*
X153710000Y-85725000D02*
X153710000Y-85765000D01*
X125305000Y-113875000D02*
X125880000Y-113875000D01*
X123825000Y-87630000D02*
X122555000Y-86360000D01*
X121940000Y-86360000D02*
X121285000Y-85705000D01*
X122555000Y-86360000D02*
X121940000Y-86360000D01*
X123825000Y-87630000D02*
X125095000Y-87630000D01*
X127635000Y-87630000D02*
X135890000Y-87630000D01*
X137795000Y-85705000D02*
X137795000Y-85725000D01*
X138430000Y-85705000D02*
X137795000Y-85705000D01*
X137795000Y-85725000D02*
X135890000Y-87630000D01*
X121285000Y-86360000D02*
X121285000Y-85705000D01*
X125880000Y-113875000D02*
X126155000Y-113875000D01*
X121285000Y-85705000D02*
X122535000Y-85705000D01*
X122535000Y-85705000D02*
X123190000Y-86360000D01*
X123190000Y-86360000D02*
X124502500Y-86360000D01*
X156210000Y-83205000D02*
X157460000Y-83205000D01*
X158075000Y-83820000D02*
X159427500Y-83820000D01*
X157460000Y-83205000D02*
X158075000Y-83820000D01*
X138430000Y-85705000D02*
X140315000Y-85705000D01*
X140970000Y-86360000D02*
X141647500Y-86360000D01*
X140315000Y-85705000D02*
X140970000Y-86360000D01*
X148590000Y-106045000D02*
X148717000Y-106045000D01*
X147630000Y-96270000D02*
X148340000Y-96270000D01*
X148340000Y-96270000D02*
X148590000Y-96520000D01*
X148590000Y-96520000D02*
X148590000Y-103505000D01*
X148844000Y-106172000D02*
X148844000Y-111125000D01*
X148717000Y-106045000D02*
X148844000Y-106172000D01*
D24*
X125880000Y-108375000D02*
X125880000Y-106530000D01*
X125880000Y-106530000D02*
X127635000Y-104775000D01*
X125880000Y-108375000D02*
X125880000Y-110975000D01*
X129540000Y-111125000D02*
X135255000Y-111125000D01*
X125880000Y-110975000D02*
X125730000Y-111125000D01*
X165100000Y-93980000D02*
X167640000Y-93980000D01*
X163830000Y-95250000D02*
X165100000Y-93980000D01*
X163830000Y-100965000D02*
X163830000Y-95250000D01*
X164465000Y-101600000D02*
X163830000Y-100965000D01*
X167880000Y-108375000D02*
X167880000Y-108190000D01*
X167880000Y-108190000D02*
X164465000Y-104775000D01*
X137795000Y-111125000D02*
X148844000Y-111125000D01*
X148844000Y-111125000D02*
X149225000Y-111125000D01*
X149225000Y-111125000D02*
X165130000Y-111125000D01*
X165130000Y-111125000D02*
X167880000Y-108375000D01*
D23*
X165735000Y-106045000D02*
X165735000Y-106230000D01*
X165735000Y-106230000D02*
X167880000Y-108375000D01*
X167640000Y-93980000D02*
X165100000Y-93980000D01*
X164465000Y-104775000D02*
X165735000Y-106045000D01*
X163830000Y-95250000D02*
X163830000Y-100965000D01*
X165100000Y-93980000D02*
X163830000Y-95250000D01*
X140970000Y-111125000D02*
X153035000Y-111125000D01*
X165735000Y-111125000D02*
X167880000Y-108980000D01*
X153035000Y-111125000D02*
X165735000Y-111125000D01*
X137795000Y-111125000D02*
X140970000Y-111125000D01*
X167880000Y-108980000D02*
X167880000Y-108375000D01*
D24*
X121680000Y-113875000D02*
X121680000Y-108375000D01*
X121680000Y-108375000D02*
X125880000Y-108375000D01*
X127635000Y-99060000D02*
X130095000Y-99060000D01*
X130095000Y-92710000D02*
X127635000Y-92710000D01*
X127635000Y-96520000D02*
X130095000Y-96520000D01*
D23*
X140335000Y-102235000D02*
X137795000Y-102235000D01*
X136525000Y-106045000D02*
X136525000Y-112395000D01*
X136525000Y-112395000D02*
X135045000Y-113875000D01*
X137795000Y-102235000D02*
X136525000Y-103505000D01*
X135045000Y-113875000D02*
X134280000Y-113875000D01*
X149860000Y-97155000D02*
X149860000Y-98425000D01*
X152400000Y-100965000D02*
X154305000Y-100965000D01*
X149860000Y-98425000D02*
X152400000Y-100965000D01*
X149860000Y-96520000D02*
X149860000Y-97155000D01*
X153670000Y-100965000D02*
X154305000Y-100965000D01*
X147630000Y-94320000D02*
X148930000Y-94320000D01*
X149860000Y-95250000D02*
X149860000Y-96520000D01*
X148930000Y-94320000D02*
X149860000Y-95250000D01*
X153670000Y-100965000D02*
X154305000Y-100965000D01*
X141930000Y-91070000D02*
X143245000Y-91070000D01*
X143510000Y-85090000D02*
X141647500Y-85090000D01*
X144145000Y-85725000D02*
X143510000Y-85090000D01*
X144145000Y-90170000D02*
X144145000Y-85725000D01*
X143245000Y-91070000D02*
X144145000Y-90170000D01*
X126365000Y-83820000D02*
X128905000Y-81280000D01*
X129540000Y-80010000D02*
X140335000Y-80010000D01*
X128905000Y-80645000D02*
X129540000Y-80010000D01*
X128905000Y-81280000D02*
X128905000Y-80645000D01*
X140335000Y-80010000D02*
X140970000Y-79375000D01*
X124502500Y-83820000D02*
X126365000Y-83820000D01*
X127635000Y-85090000D02*
X129497500Y-85090000D01*
X126365000Y-83820000D02*
X127635000Y-85090000D01*
X144145000Y-83820000D02*
X144145000Y-80010000D01*
X144145000Y-80010000D02*
X143510000Y-79375000D01*
X141647500Y-83820000D02*
X144145000Y-83820000D01*
X145415000Y-85090000D02*
X146642500Y-85090000D01*
X144145000Y-83820000D02*
X145415000Y-85090000D01*
X154305000Y-80645000D02*
X154940000Y-80010000D01*
X159385000Y-80010000D02*
X160020000Y-80645000D01*
X154940000Y-80010000D02*
X159385000Y-80010000D01*
X153670000Y-80645000D02*
X154305000Y-80645000D01*
X160655000Y-81280000D02*
X160020000Y-80645000D01*
X161925000Y-85725000D02*
X161925000Y-82550000D01*
X160655000Y-81280000D02*
X161925000Y-82550000D01*
X147320000Y-80645000D02*
X153670000Y-80645000D01*
X147320000Y-80645000D02*
X146050000Y-79375000D01*
X159427500Y-86360000D02*
X161290000Y-86360000D01*
X162560000Y-86360000D02*
X164422500Y-86360000D01*
X161925000Y-85725000D02*
X162560000Y-86360000D01*
X161290000Y-86360000D02*
X161925000Y-85725000D01*
X148590000Y-79375000D02*
X160655000Y-79375000D01*
X160655000Y-79375000D02*
X163830000Y-82550000D01*
X163830000Y-82550000D02*
X164422500Y-82550000D01*
X164422500Y-82550000D02*
X164422500Y-83820000D01*
X132795000Y-99060000D02*
X132795000Y-99615000D01*
X132795000Y-99615000D02*
X132080000Y-100330000D01*
X126365000Y-100965000D02*
X121285000Y-100965000D01*
X127000000Y-100330000D02*
X126365000Y-100965000D01*
X132080000Y-100330000D02*
X127000000Y-100330000D01*
X141930000Y-96270000D02*
X139315000Y-96270000D01*
X136525000Y-99060000D02*
X132795000Y-99060000D01*
X139315000Y-96270000D02*
X136525000Y-99060000D01*
X132795000Y-92710000D02*
X132795000Y-92155000D01*
X132795000Y-92155000D02*
X131445000Y-90805000D01*
X131445000Y-90805000D02*
X121285000Y-90805000D01*
X141930000Y-93670000D02*
X138120000Y-93670000D01*
X137160000Y-92710000D02*
X132795000Y-92710000D01*
X138120000Y-93670000D02*
X137160000Y-92710000D01*
X132795000Y-96520000D02*
X132795000Y-97075000D01*
X132795000Y-97075000D02*
X132080000Y-97790000D01*
X126365000Y-98425000D02*
X121285000Y-98425000D01*
X127000000Y-97790000D02*
X126365000Y-98425000D01*
X132080000Y-97790000D02*
X127000000Y-97790000D01*
X141930000Y-95620000D02*
X138060000Y-95620000D01*
X137160000Y-96520000D02*
X132795000Y-96520000D01*
X138060000Y-95620000D02*
X137160000Y-96520000D01*
X124502500Y-82550000D02*
X124915000Y-82550000D01*
X124915000Y-82550000D02*
X127455000Y-80010000D01*
X129497500Y-82550000D02*
X129497500Y-82217500D01*
X129497500Y-82217500D02*
X130705000Y-81010000D01*
X141930000Y-91720000D02*
X139980000Y-91720000D01*
X139065000Y-90805000D02*
X139065000Y-88900000D01*
X139980000Y-91720000D02*
X139065000Y-90805000D01*
X141930000Y-91720000D02*
X138075000Y-91720000D01*
X125730000Y-85090000D02*
X124502500Y-85090000D01*
X126365000Y-85725000D02*
X125730000Y-85090000D01*
X126365000Y-88265000D02*
X126365000Y-85725000D01*
X127635000Y-89535000D02*
X126365000Y-88265000D01*
X131445000Y-89535000D02*
X127635000Y-89535000D01*
X132715000Y-90805000D02*
X131445000Y-89535000D01*
X137160000Y-90805000D02*
X132715000Y-90805000D01*
X138075000Y-91720000D02*
X137160000Y-90805000D01*
X141930000Y-94320000D02*
X127340000Y-94320000D01*
X126365000Y-93345000D02*
X121285000Y-93345000D01*
X127340000Y-94320000D02*
X126365000Y-93345000D01*
X141930000Y-94970000D02*
X127280000Y-94970000D01*
X126365000Y-95885000D02*
X121285000Y-95885000D01*
X127280000Y-94970000D02*
X126365000Y-95885000D01*
X137160000Y-100965000D02*
X133350000Y-100965000D01*
X139700000Y-98425000D02*
X137160000Y-100965000D01*
X147630000Y-94970000D02*
X146965000Y-94970000D01*
X146050000Y-97155000D02*
X144780000Y-98425000D01*
X146050000Y-95885000D02*
X146050000Y-97155000D01*
X146965000Y-94970000D02*
X146050000Y-95885000D01*
X144780000Y-98425000D02*
X139700000Y-98425000D01*
X130810000Y-103505000D02*
X121285000Y-103505000D01*
X133350000Y-100965000D02*
X130810000Y-103505000D01*
X153670000Y-82550000D02*
X154940000Y-81280000D01*
X154940000Y-81280000D02*
X155575000Y-81280000D01*
X153670000Y-82550000D02*
X153035000Y-83185000D01*
X152400000Y-87630000D02*
X151765000Y-87630000D01*
X153035000Y-86995000D02*
X152400000Y-87630000D01*
X153035000Y-83185000D02*
X153035000Y-86995000D01*
X158157500Y-81280000D02*
X159427500Y-82550000D01*
X156210000Y-81280000D02*
X158157500Y-81280000D01*
X155575000Y-81280000D02*
X156210000Y-81280000D01*
X145415000Y-88265000D02*
X146050000Y-87630000D01*
X145415000Y-90170000D02*
X145415000Y-88265000D01*
X146315000Y-91070000D02*
X145415000Y-90170000D01*
X146050000Y-87630000D02*
X151765000Y-87630000D01*
X147630000Y-91070000D02*
X146315000Y-91070000D01*
X159427500Y-85090000D02*
X158115000Y-85090000D01*
X157480000Y-85725000D02*
X157480000Y-87630000D01*
X158115000Y-85090000D02*
X157480000Y-85725000D01*
X156845000Y-88265000D02*
X156210000Y-88265000D01*
X146935000Y-90420000D02*
X147630000Y-90420000D01*
X146050000Y-89535000D02*
X146935000Y-90420000D01*
X146050000Y-88900000D02*
X146050000Y-89535000D01*
X146685000Y-88265000D02*
X146050000Y-88900000D01*
X147320000Y-88265000D02*
X146685000Y-88265000D01*
X156210000Y-88265000D02*
X147320000Y-88265000D01*
X157480000Y-87630000D02*
X156845000Y-88265000D01*
X159427500Y-85090000D02*
X158750000Y-85090000D01*
M02*
