G04 #@! TF.FileFunction,Soldermask,Top*
%FSLAX46Y46*%
G04 Gerber Fmt 4.6, Leading zero omitted, Abs format (unit mm)*
G04 Created by KiCad (PCBNEW 4.0.7) date 08/02/18 14:57:07*
%MOMM*%
%LPD*%
G01*
G04 APERTURE LIST*
%ADD10C,0.100000*%
%ADD11R,1.390000X1.640000*%
%ADD12R,1.740000X3.140000*%
%ADD13R,1.840000X1.840000*%
%ADD14O,1.840000X1.840000*%
%ADD15R,1.640000X1.440000*%
%ADD16R,1.640000X1.740000*%
%ADD17R,1.340000X1.340000*%
%ADD18R,1.240000X0.540000*%
%ADD19R,1.645000X0.942000*%
%ADD20C,2.240000*%
G04 APERTURE END LIST*
D10*
D11*
X150495000Y-90190000D03*
X150495000Y-92690000D03*
D12*
X154940000Y-90510000D03*
X154940000Y-94910000D03*
D11*
X156210000Y-83205000D03*
X156210000Y-85705000D03*
X138430000Y-85705000D03*
X138430000Y-83205000D03*
X132715000Y-83205000D03*
X132715000Y-85705000D03*
D13*
X167640000Y-93980000D03*
X167640000Y-98425000D03*
X167640000Y-89535000D03*
X167640000Y-102870000D03*
X140335000Y-102235000D03*
D14*
X142875000Y-102235000D03*
D13*
X154305000Y-100965000D03*
X139065000Y-88900000D03*
X140970000Y-79375000D03*
D14*
X143510000Y-79375000D03*
X146050000Y-79375000D03*
X148590000Y-79375000D03*
D15*
X130095000Y-99060000D03*
X132795000Y-99060000D03*
X132795000Y-92710000D03*
X130095000Y-92710000D03*
X132795000Y-96520000D03*
X130095000Y-96520000D03*
D16*
X127455000Y-80010000D03*
D17*
X130705000Y-81010000D03*
X130705000Y-79010000D03*
D18*
X141930000Y-89770000D03*
X141930000Y-90420000D03*
X141930000Y-91070000D03*
X141930000Y-91720000D03*
X141930000Y-92370000D03*
X141930000Y-93020000D03*
X141930000Y-93670000D03*
X141930000Y-94320000D03*
X141930000Y-94970000D03*
X141930000Y-95620000D03*
X141930000Y-96270000D03*
X141930000Y-96920000D03*
X147630000Y-96920000D03*
X147630000Y-96270000D03*
X147630000Y-95620000D03*
X147630000Y-94970000D03*
X147630000Y-94320000D03*
X147630000Y-93670000D03*
X147630000Y-93020000D03*
X147630000Y-92370000D03*
X147630000Y-91720000D03*
X147630000Y-91070000D03*
X147630000Y-90420000D03*
X147630000Y-89770000D03*
D19*
X124502500Y-82550000D03*
X124502500Y-83820000D03*
X124502500Y-85090000D03*
X124502500Y-86360000D03*
X129497500Y-86360000D03*
X129497500Y-85090000D03*
X129497500Y-83820000D03*
X129497500Y-82550000D03*
X141647500Y-82550000D03*
X141647500Y-83820000D03*
X141647500Y-85090000D03*
X141647500Y-86360000D03*
X146642500Y-86360000D03*
X146642500Y-85090000D03*
X146642500Y-83820000D03*
X146642500Y-82550000D03*
X159427500Y-82550000D03*
X159427500Y-83820000D03*
X159427500Y-85090000D03*
X159427500Y-86360000D03*
X164422500Y-86360000D03*
X164422500Y-85090000D03*
X164422500Y-83820000D03*
X164422500Y-82550000D03*
D13*
X121285000Y-90805000D03*
D14*
X121285000Y-93345000D03*
X121285000Y-95885000D03*
X121285000Y-98425000D03*
X121285000Y-100965000D03*
X121285000Y-103505000D03*
D11*
X121285000Y-85705000D03*
X121285000Y-83205000D03*
X149860000Y-83205000D03*
X149860000Y-85705000D03*
X167640000Y-85705000D03*
X167640000Y-83205000D03*
D20*
X121680000Y-108375000D03*
X125880000Y-108375000D03*
X130080000Y-108375000D03*
X134280000Y-108375000D03*
X138480000Y-108375000D03*
X142680000Y-108375000D03*
X146880000Y-108375000D03*
X151080000Y-108375000D03*
X155280000Y-108375000D03*
X159480000Y-108375000D03*
X163680000Y-108375000D03*
X167880000Y-108375000D03*
X121680000Y-113875000D03*
X125880000Y-113875000D03*
X130080000Y-113875000D03*
X134280000Y-113875000D03*
X138480000Y-113875000D03*
X142680000Y-113875000D03*
X146880000Y-113875000D03*
X151080000Y-113875000D03*
X155280000Y-113875000D03*
X159480000Y-113875000D03*
X163680000Y-113875000D03*
X167880000Y-113875000D03*
M02*
